# xmcd CD database file
# Copyright (C) 1993-1998 Ti Kan
#
# Track frame offsets:
#	150
#	21747
#	42295
#	59167
#	75492
#	95350
#	110515
#	130037
#	146102
#	162665
#	181230
#	205160
#	230415
#	242082
#	256205
#	274290
#	303607
#	320290
#
# Disc length: 4462 seconds
#
# Revision: 1
# Processed by: cddbd v1.4b41PL1 Copyright (c) Steve Scherf et al.
# Submitted via: CDValet v3.31 - Copyright (c) 1997 Greg Leichner
#
DISCID=09116c12
DTITLE=Walter Jackson - Feelings - A golden Classics Edition
DYEAR=1900
DGENRE=
TTITLE0=Feelings
TTITLE1=It's Cool
TTITLE2=Baby, I love Your Way
TTITLE3=Magic Man
TTITLE4=If I Had My Way
TTITLE5=Come To Me
TTITLE6=Unchained Melody
TTITLE7=Got To Find Me An Angel
TTITLE8=At Last
TTITLE9=I Won't Remember Ever Loving You
TTITLE10=Everything Must Change
TTITLE11=Tell Me Where It Hurts
TTITLE12=I Got It Bad Feelin' good
TTITLE13=Love Woke Me Up This MOrning
TTITLE14=Open Up Your Heart
TTITLE15=Someone Saved My Life Tonight
TTITLE16=Love Goes Out Of The Loving
TTITLE17=If You Walked Away
EXTD=
EXTT0=
EXTT1=
EXTT2=
EXTT3=
EXTT4=
EXTT5=
EXTT6=
EXTT7=
EXTT8=
EXTT9=
EXTT10=
EXTT11=
EXTT12=
EXTT13=
EXTT14=
EXTT15=
EXTT16=
EXTT17=
PLAYORDER=
